<svg width="40" height="40" viewBox="0 0 40 40" fill="none" xmlns="http://www.w3.org/2000/svg">
<path d="M11.8722 37.5738L11.8486 37.3788C11.8486 37.3788 11.833 37.2384 11.7939 37.1838C11.7549 37.137 11.7313 37.0356 11.7313 37.0356L11.6298 36.8718C11.6298 36.8718 11.6298 37.0668 11.5985 37.2462C11.5672 37.4256 11.5203 37.449 11.4969 37.5192C11.4734 37.5816 11.4578 37.6284 11.4578 37.6284L11.4265 37.6908C11.4265 37.6908 11.403 37.7141 11.3874 37.7453C11.3639 37.7766 11.3562 37.8156 11.3562 37.8156C11.3562 37.8156 11.3326 37.7922 11.3014 37.839C11.2702 37.8858 11.2623 37.8858 11.231 37.9014C11.1998 37.917 11.1685 37.9404 11.145 37.9404C11.1216 37.9404 11.0669 37.9404 10.9965 37.9871C10.9262 38.0339 10.8558 38.0496 10.8558 38.0496C10.8558 38.0496 10.6995 38.0964 10.6525 38.1042C10.6056 38.1042 10.5665 38.1276 10.5665 38.1276L10.5509 38.1744L10.5196 38.1588L10.5039 38.1354C10.5039 38.1354 10.3711 38.1354 10.3085 38.1354C10.2459 38.151 10.1835 38.151 10.1835 38.151C10.1835 38.151 10.0115 38.151 9.98019 38.151C9.94891 38.151 9.87851 38.151 9.87075 38.1276C9.85507 38.112 9.85507 38.0574 9.85507 38.0574C9.85507 38.0574 9.88635 37.9871 9.87851 37.9482C9.87075 37.917 9.85507 37.878 9.85507 37.878V37.8546L9.87075 37.8312V37.8078L9.86291 37.7453V37.6752L9.85507 37.6284H9.80819L9.76123 37.6518L9.73779 37.6284L9.68307 37.6674C9.68307 37.6674 9.65963 37.6674 9.65179 37.644C9.63619 37.6128 9.58147 37.5582 9.62051 37.5348C9.64668 37.5192 9.66747 37.5192 9.68307 37.5348C9.68307 37.5348 9.73779 37.5972 9.76123 37.5582C9.78475 37.527 9.82379 37.5192 9.82379 37.5192L9.86291 37.4646L9.88635 37.449C9.88635 37.449 9.89419 37.1994 9.89419 37.1292C9.89419 37.059 9.84722 37.0122 9.84722 36.9576C9.84722 36.903 9.86291 36.747 9.86291 36.6222C9.86291 36.4974 9.85507 36.2088 9.86291 36.1542C9.87075 36.0996 9.90194 36.0918 9.90979 36.0528C9.91763 36.0138 9.90979 35.8968 9.90979 35.8657C9.90979 35.8345 9.87851 35.8188 9.90194 35.772C9.92547 35.7252 9.92547 35.6628 9.92547 35.6628C9.92547 35.6628 9.91763 35.3898 9.93322 35.2494C9.95675 35.1091 10.0115 35.0623 10.0662 35.0076C10.1209 34.9452 10.1599 34.9218 10.1912 34.8984C10.2225 34.875 10.3007 34.8438 10.3007 34.8438L10.3163 34.797L10.3398 34.8126C10.3398 34.8126 10.3867 34.7737 10.4102 34.7581C10.4336 34.7425 10.5118 34.7034 10.5118 34.6722C10.5118 34.641 10.5431 34.641 10.5431 34.641C10.5431 34.641 10.3163 34.6254 10.2303 34.641C10.1443 34.6488 10.1287 34.6878 10.0739 34.6644C10.0192 34.6488 9.83163 34.6644 9.83163 34.6644H9.77691L9.70651 34.641L9.68307 34.6566L9.65963 34.7112L9.62051 34.7502L9.57363 34.8205V34.8906C9.57363 34.8906 9.54235 34.8049 9.54235 34.7737C9.54235 34.7425 9.53451 34.6956 9.53451 34.6956L9.50323 34.6722C9.50323 34.6722 9.42507 34.68 9.35476 34.6722C9.28436 34.6566 9.2218 34.6878 9.2218 34.6878L9.15148 34.7425H9.06548L9.0342 34.68C9.0342 34.68 8.98724 34.68 8.9482 34.68H8.79181L8.72149 34.6644H8.59637C8.59637 34.6644 8.59637 34.68 8.51821 34.6644C8.44006 34.6488 8.36966 34.6644 8.36966 34.6644C8.36966 34.6644 8.44006 34.7112 8.46349 34.7425L8.49477 34.7737C8.49477 34.7737 8.51037 34.797 8.54949 34.8205C8.58861 34.8517 8.64333 34.9218 8.64333 34.9218L8.69021 34.9686C8.69021 34.9686 8.75277 34.992 8.77621 35.0467C8.79965 35.1091 8.81533 35.1558 8.83877 35.2572C8.86221 35.3586 8.87005 35.46 8.87005 35.46L8.90133 35.5224L8.88565 35.5848C8.88565 35.5848 8.88565 35.616 8.88565 35.7174C8.88565 35.8188 8.92477 35.928 8.92477 35.928V36.2244C8.92477 36.318 8.92477 36.4584 8.92477 36.4584V36.6066C8.92477 36.6066 8.95605 36.8484 8.94036 36.9186C8.92477 36.9888 8.94036 37.0668 8.94036 37.0668C8.94036 37.0668 8.9638 37.1448 8.94036 37.1994C8.94036 37.1994 8.94036 37.5036 8.92477 37.5816C8.92477 37.6596 8.92477 37.8858 8.90133 37.9638C8.8778 38.0418 8.81533 38.1744 8.79181 38.2134C8.76837 38.2524 8.63549 38.424 8.63549 38.424C8.63549 38.424 8.54949 38.463 8.47134 38.5175C8.38534 38.5643 8.32278 38.6112 8.32278 38.6112L8.2211 38.6736C8.2211 38.6736 8.2211 38.697 8.2759 38.697C8.33062 38.697 8.41662 38.7048 8.47134 38.7048C8.52605 38.7048 8.64333 38.6736 8.64333 38.6736L8.70581 38.6346C8.70581 38.6346 8.83877 38.5956 8.87005 38.6034C8.90133 38.6112 8.95605 38.6112 8.95605 38.6112L9.22964 38.6424C9.22964 38.6424 9.67523 38.6736 9.71435 38.6502C9.75347 38.6268 9.87075 38.6502 9.87075 38.6502C9.87075 38.6502 9.91763 38.6112 9.94106 38.619C9.9645 38.619 10.0036 38.6346 10.0271 38.6268C10.0505 38.6268 10.1522 38.6892 10.1522 38.658C10.1522 38.6268 10.1365 38.5566 10.2225 38.5643L10.2851 38.5331L10.3163 38.5643L10.2772 38.5956L10.3163 38.6346C10.3163 38.6346 10.4179 38.6112 10.4649 38.6112C10.5118 38.6112 10.7072 38.6424 10.7542 38.6346C10.801 38.619 10.9574 38.658 10.9574 38.658C10.9574 38.658 11.0043 38.6112 11.0278 38.619C11.0512 38.619 11.3014 38.619 11.3014 38.619C11.3014 38.619 11.4186 38.6112 11.4734 38.6112C11.5282 38.6112 11.6219 38.6892 11.661 38.7437C11.661 38.7437 11.7392 38.5643 11.7862 38.4396C11.8409 38.3148 11.8643 38.1042 11.8799 38.0262C11.8956 37.9482 11.919 37.8468 11.919 37.8468C11.919 37.8468 11.9425 37.839 11.9346 37.7376C11.9346 37.6362 11.9346 37.5348 11.9346 37.5348L11.8722 37.5738ZM17.7981 38.4006C17.7981 38.4006 17.7512 38.3382 17.6418 38.2524C17.5324 38.1666 17.5088 38.1042 17.5088 38.1042L17.462 38.0027L17.4464 37.917L17.3994 37.8702L17.376 37.8L17.3368 37.7688L17.2978 37.6596C17.2978 37.6596 17.2196 37.371 17.1571 37.254C17.0945 37.1292 17.0241 36.9576 17.0241 36.9576C17.0241 36.9576 16.9538 36.7938 16.9381 36.7392C16.9225 36.6846 16.8913 36.63 16.8913 36.63L16.8444 36.5754L16.7974 36.591H16.7271L16.7427 36.4974L16.7974 36.4272V36.3258L16.7505 36.2478C16.7505 36.2478 16.6254 36.0918 16.6098 36.0138C16.5864 35.9358 16.516 35.7876 16.516 35.7876L16.4691 35.6394C16.4691 35.6394 16.3831 35.3742 16.3753 35.343C16.3753 35.3197 16.2893 35.1012 16.258 35.0623L16.2111 34.914C16.2111 34.914 16.2111 34.7893 16.1641 34.7737C16.1173 34.7581 16.086 34.7425 16.086 34.7425L16.0547 34.6644C16.0547 34.6644 15.9531 34.4772 15.9374 34.4226C15.9374 34.4226 15.7654 34.6099 15.7342 34.6488C15.703 34.68 15.6091 34.7581 15.6091 34.7581C15.6091 34.7581 15.4684 34.8205 15.4137 34.8673C15.3667 34.9218 15.3042 34.9608 15.3042 34.9608C15.3042 34.9608 15.0853 35.0856 15.0462 35.1168C14.9993 35.148 14.9758 35.1792 14.9758 35.1792L14.9211 35.2494H14.8664C14.8664 35.2494 14.7257 35.3509 14.6866 35.3976C14.6475 35.4444 14.5537 35.5068 14.538 35.5848C14.538 35.5848 14.71 35.5068 14.757 35.499C14.8039 35.4912 14.8899 35.4756 14.8899 35.4756L14.9524 35.4444L15.0931 35.4288C15.0931 35.4288 15.14 35.3976 15.1947 35.4288C15.2494 35.46 15.273 35.4444 15.3277 35.4522C15.3746 35.46 15.4293 35.499 15.4293 35.499L15.4606 35.5302C15.4606 35.5302 15.4918 35.538 15.5153 35.5771C15.5466 35.6083 15.5622 35.6706 15.5622 35.6706C15.5622 35.6706 15.531 35.733 15.5074 35.7564C15.4762 35.7798 15.445 35.8344 15.445 35.8344L15.398 35.8812C15.398 35.8812 15.398 35.8578 15.3433 35.889C15.2807 35.9202 15.2338 35.967 15.2338 35.967L15.2026 35.9826C15.2026 35.9826 15.1557 36.0138 15.1322 36.0606C15.1115 36.0918 15.0958 36.1231 15.0853 36.1542C15.0618 36.2088 15.054 36.2478 15.054 36.2478C15.054 36.2478 15.054 36.24 15.0071 36.2946C14.968 36.3492 14.9758 36.3882 14.9367 36.4194L14.8899 36.4428C14.8899 36.4428 14.8899 36.4974 14.8664 36.5754C14.843 36.6534 14.796 36.7314 14.796 36.7314C14.796 36.7314 14.7413 36.8094 14.7491 36.8406C14.7491 36.8718 14.7491 36.9108 14.7491 36.9108H14.6944C14.6944 36.9108 14.6319 37.0824 14.624 37.1136V37.137L14.499 37.1292C14.499 37.1292 14.366 37.1292 14.2644 37.137C14.1627 37.1448 14.2487 37.1448 14.2487 37.1448L14.1393 37.1682C14.1393 37.1682 14.0846 37.1682 14.0143 37.1916C13.9517 37.215 13.8657 37.2462 13.8657 37.2462C13.8657 37.2462 13.85 37.3008 13.9439 37.332C14.0377 37.3632 14.1627 37.3944 14.1627 37.3944C14.1627 37.3944 14.2175 37.4256 14.2957 37.4412C14.366 37.449 14.3191 37.4567 14.3191 37.4567C14.3191 37.4567 14.366 37.4567 14.3895 37.4802L14.4207 37.5036L14.3583 37.5504L14.5067 37.566C14.5067 37.566 14.3739 37.9014 14.3347 37.995C14.2957 38.0886 14.2175 38.1822 14.2175 38.1822C14.2175 38.1822 14.2175 38.1588 14.1237 38.2601C14.022 38.3616 13.8813 38.4786 13.8187 38.5098C13.7563 38.541 13.7016 38.5799 13.7016 38.5799C13.7016 38.5799 13.6312 38.6034 13.5999 38.6658C13.5999 38.6658 13.7406 38.697 13.811 38.7125C13.8736 38.7204 13.9673 38.7048 13.9673 38.7048C13.9673 38.7048 14.0533 38.6892 14.1315 38.6892C14.2097 38.6892 14.3191 38.7048 14.3191 38.7048L14.452 38.7204H14.5537C14.5537 38.7204 14.6006 38.7437 14.7257 38.7437C14.8507 38.7437 15.015 38.7516 15.015 38.7516H15.2886L15.3824 38.7593C15.3824 38.7593 15.2964 38.6814 15.2417 38.6502C15.187 38.619 15.1087 38.5566 15.1087 38.5566C15.1087 38.5566 15.015 38.5098 15.0071 38.463C15.0071 38.4084 15.0384 38.2601 15.0384 38.2601V38.1666C15.0384 38.1666 15.0071 38.0964 15.0227 38.0262C15.0384 37.956 15.054 37.839 15.054 37.839L15.101 37.5738L15.1791 37.6362H15.3042C15.3667 37.6362 15.4606 37.6206 15.5231 37.6362C15.5857 37.6518 15.7967 37.6596 15.8984 37.6596C16 37.6596 16.0313 37.6596 16.0704 37.6674C16.1094 37.6752 16.1329 37.6908 16.1798 37.6908C16.2267 37.6908 16.2424 37.6908 16.3518 37.683C16.4613 37.6752 16.4847 37.6518 16.4847 37.6518H16.5473C16.5473 37.6518 16.5629 37.7064 16.5629 37.7844C16.5629 37.8624 16.5785 37.9326 16.5785 38.0496V38.2524C16.5785 38.2524 16.6177 38.2992 16.5394 38.385C16.4613 38.4707 16.4065 38.5643 16.4065 38.5643C16.4065 38.5643 16.3597 38.619 16.2971 38.6736L16.2501 38.7048C16.2501 38.7048 16.3049 38.7048 16.3753 38.7281C16.4378 38.7516 16.5317 38.7125 16.5317 38.7125C16.5317 38.7125 16.6567 38.7125 16.7271 38.697C16.7897 38.6814 17.0241 38.7437 17.0554 38.7437C17.0867 38.7437 17.2431 38.7516 17.2431 38.7516C17.2431 38.7516 17.3681 38.7048 17.4698 38.7204C17.5792 38.7281 17.6261 38.7281 17.6261 38.7281C17.6261 38.7281 17.7356 38.7516 17.7668 38.7204C17.806 38.6892 17.8451 38.7281 17.8451 38.7281L17.9076 38.7437H18.0327C18.0327 38.7437 18.1812 38.7516 18.2281 38.7516H18.3375C18.3375 38.7516 18.1265 38.5722 18.0405 38.5175C17.9545 38.463 17.806 38.3928 17.806 38.3928L17.7981 38.4006ZM16.0157 36.9576C15.9531 36.9576 15.8593 36.9732 15.8593 36.9732H15.7342L15.6873 37.02L15.6404 37.0356C15.6404 37.0356 15.656 37.059 15.617 37.0668C15.5778 37.0746 15.5466 37.0902 15.5466 37.0902C15.5466 37.0902 15.484 37.0902 15.484 37.059C15.484 37.0278 15.4371 36.981 15.4371 36.981H15.3824L15.3667 36.9186H15.2964C15.2964 36.9186 15.3824 36.669 15.4527 36.5754C15.5231 36.4818 15.5857 36.2712 15.5857 36.2712C15.5857 36.2712 15.6326 36.1464 15.6717 36.1075C15.7107 36.0606 15.7498 35.9592 15.7498 35.9592C15.7498 35.9592 15.8906 36.1776 15.9218 36.2478C15.9531 36.318 15.9687 36.357 15.9687 36.357C15.9687 36.357 15.9844 36.435 16.0157 36.4974C16.047 36.5598 16.0781 36.6534 16.0781 36.6534L16.1564 36.8016L16.2033 36.9342C16.2033 36.9342 16.0704 36.9576 16.0078 36.9576H16.0157ZM31.8705 34.9842C32.0269 34.8984 32.1754 34.8049 32.3318 34.7112C32.3318 34.6956 32.3318 34.68 32.3318 34.6566C32.1519 34.6566 31.9721 34.6566 31.8002 34.6566C31.7923 34.6566 31.7845 34.6722 31.7766 34.6722C31.6907 34.6878 31.6047 34.7112 31.5187 34.7112C31.4171 34.7112 31.3154 34.68 31.2059 34.6878C31.0339 34.6878 30.8619 34.7268 30.6978 34.7346C30.5805 34.7425 30.4632 34.7346 30.346 34.7346C30.4085 34.8205 30.4789 34.8829 30.5571 34.9374C30.6665 35.0076 30.7056 35.1247 30.7134 35.2729C30.7134 35.4678 30.7994 35.4678 30.9011 35.6083C30.8072 35.772 30.7291 35.4678 30.7291 35.6862C30.7291 35.7876 30.7134 36.1932 30.7134 36.2946C30.7056 36.6066 30.6899 36.9186 30.6899 37.2306C30.6899 37.4958 30.7212 37.7532 30.7291 38.0183C30.7291 38.3928 30.6743 38.4942 30.4007 38.6424C30.3225 38.6892 30.2444 38.7516 30.1662 38.7984C30.1662 38.7984 30.174 38.814 30.1818 38.814C30.4164 38.814 30.6744 38.8842 30.8776 38.7905C31.1199 38.6814 31.3389 38.8608 31.5578 38.7905C31.5656 38.7905 31.9018 38.8061 31.9096 38.8061C32.0738 38.8217 31.847 38.736 32.0112 38.7437C32.0425 38.7437 32.1598 38.8217 32.191 38.8217C32.191 38.814 32.2066 38.7984 32.2066 38.7828C32.1441 38.7125 32.0894 38.6502 32.0269 38.5799C31.9643 38.5098 31.8939 38.4474 31.8392 38.3694C31.7611 38.2601 31.6985 38.1354 31.7376 37.9794C31.7766 37.8312 31.7845 37.683 31.7689 37.5192C31.7532 37.2618 31.7532 37.0122 31.7454 36.7548C31.7298 36.4506 31.7063 36.1542 31.7063 35.8501C31.7063 35.616 31.7611 35.3821 31.7766 35.148C31.7766 35.0544 31.8079 34.9999 31.8783 34.9686L31.8705 34.9842ZM22.2466 36.669C22.1528 36.6144 22.0746 36.513 21.9729 36.4662C21.8792 36.4272 21.7853 36.396 21.6915 36.3726C21.5976 36.3492 21.5195 36.2322 21.4335 36.2244C21.4335 36.0762 21.3319 36.1386 21.2693 36.1464C21.2693 36.1308 21.2693 36.1075 21.2693 36.084C21.1599 36.084 21.0582 35.928 20.9566 35.8657C20.8472 35.7954 20.7065 35.694 20.5892 35.6862C20.5735 35.5224 20.7689 35.226 20.8862 35.1714C20.9566 35.1402 21.0661 35.1168 21.1364 35.0935C21.2459 35.0544 21.3475 35.1012 21.4648 35.0935C21.4648 35.0623 21.5429 35.0232 21.5352 35.0779C21.6446 35.0779 21.7775 35.1168 21.8869 35.148C21.9416 35.1636 21.9729 35.2026 22.012 35.2416C22.0668 35.2962 22.1136 35.2962 22.184 35.3353C22.2935 35.3976 22.3716 35.5848 22.442 35.694C22.4967 35.7798 22.5749 35.8578 22.5906 35.9826C22.5749 35.772 22.5593 35.5458 22.5436 35.3274C22.5359 35.226 22.5123 35.1324 22.4967 35.0311C22.4733 34.8829 22.4967 34.719 22.4811 34.5787C22.2856 34.7893 21.9886 34.6956 21.7462 34.7269C21.4648 34.7658 21.2068 34.6722 20.9332 34.7034C20.8706 34.7034 20.8315 34.7581 20.7925 34.7658C20.7455 34.7814 20.7065 34.7502 20.6595 34.7502C20.5422 34.7658 20.4015 34.8594 20.3078 34.9452C20.1201 35.1012 19.9715 35.2182 19.8542 35.4756C19.8074 35.5692 19.7448 35.6706 19.7135 35.7798C19.6822 35.8657 19.6979 36.0216 19.6588 36.1075C19.6432 36.1464 19.5962 36.1698 19.5572 36.201C19.6275 36.2712 19.7448 36.2868 19.823 36.3102C19.8934 36.3336 19.9715 36.396 20.0341 36.4116C20.0809 36.4194 20.1201 36.4038 20.1669 36.4116C20.1514 36.5832 20.3546 36.669 20.4562 36.7548C20.5266 36.8094 20.5892 36.8328 20.6517 36.8796C20.7142 36.9186 20.7689 37.0122 20.8393 37.0278C20.8393 37.0122 20.8393 37.0044 20.8393 36.9966C20.9175 37.0122 20.9722 37.0746 21.0505 37.0824C21.1286 37.0824 21.2146 37.0746 21.2146 37.2306C21.3396 37.2306 21.4569 37.3788 21.5742 37.4412C21.6836 37.4958 21.8244 37.6596 21.9339 37.6674C21.8322 37.8702 21.7228 38.0652 21.5429 38.1744C21.4022 38.2601 21.324 38.2524 21.1676 38.2757C21.1442 38.2757 21.1208 38.3148 21.0973 38.3148C21.0739 38.3148 21.0505 38.2757 21.0269 38.2913C20.9801 38.3148 20.9645 38.3226 20.9957 38.4006C20.9801 38.3928 20.9645 38.4006 20.9488 38.4006C20.9645 38.4474 20.9488 38.5722 20.9097 38.5878C20.9097 38.5175 20.9097 38.385 20.9097 38.3148C20.7925 38.2836 20.6361 38.2913 20.5345 38.19C20.4172 38.0808 20.2921 37.9482 20.1592 37.8234C20.0888 37.7532 20.0341 37.7376 19.9872 37.644C19.9715 37.6128 19.9715 37.566 19.9481 37.5348C19.9325 37.5114 19.8934 37.5114 19.8855 37.4958C19.8386 37.4022 19.7995 37.2072 19.7839 37.098C19.7839 37.2306 19.7448 37.3632 19.7292 37.488C19.7135 37.6128 19.7214 37.7453 19.7058 37.8702C19.6822 38.112 19.6275 38.3772 19.5494 38.5878C19.6275 38.5098 19.6666 38.4006 19.7761 38.3772C19.9012 38.346 19.995 38.4474 20.1122 38.4786C20.2999 38.5254 20.4719 38.6658 20.6595 38.7048C20.7689 38.7281 20.8549 38.7048 20.9645 38.7593V38.7672C21.1208 38.7672 21.2772 38.7281 21.4413 38.7281C21.6524 38.7281 21.8556 38.6034 22.0433 38.4942C22.1293 38.4396 22.1683 38.3538 22.2543 38.2913C22.3403 38.2289 22.3716 38.19 22.4342 38.1042C22.528 37.9794 22.6531 37.8936 22.6375 37.6752C22.7079 37.6752 22.7626 37.4879 22.786 37.41C22.8095 37.332 22.8016 37.2852 22.8486 37.2306C22.8876 37.1838 22.9893 37.1448 23.0362 37.1448C22.9267 37.098 22.8329 36.9888 22.7235 36.9342C22.5593 36.8484 22.3873 36.7938 22.2309 36.7002L22.2466 36.669ZM19.5259 36.2088C19.5259 36.2088 19.5415 36.1932 19.5494 36.1854C19.5494 36.1854 19.5415 36.1776 19.5338 36.1698V36.2088H19.5259ZM27.3986 36.669C27.3048 36.6144 27.2267 36.513 27.125 36.4662C27.0311 36.4272 26.9374 36.396 26.8435 36.3726C26.7575 36.3492 26.8279 36.3492 26.7419 36.3336C26.7419 36.1854 26.6403 36.2478 26.5777 36.2556C26.5777 36.24 26.5777 36.2166 26.5777 36.1932C26.4683 36.1932 26.2103 35.928 26.1087 35.8657C25.9992 35.7954 25.8584 35.694 25.7412 35.6862C25.7256 35.5224 25.921 35.226 26.0383 35.1714C26.1087 35.1402 26.2103 35.1168 26.2884 35.0935C26.3979 35.0544 26.4996 35.1012 26.609 35.0935C26.609 35.0623 26.5151 34.9764 26.5151 34.953C26.5543 34.992 26.6871 35.0232 26.6794 35.0779C26.7888 35.0779 26.9217 35.1168 27.0311 35.148C27.0859 35.1636 27.1171 35.2026 27.1563 35.2416C27.211 35.2962 27.2579 35.2962 27.3283 35.3353C27.4377 35.3976 27.5158 35.5848 27.5863 35.694C27.641 35.7798 27.7974 35.8734 27.8208 36.006C27.8051 35.7954 27.7113 35.5458 27.6878 35.3353C27.6801 35.2338 27.6566 35.1402 27.641 35.0388C27.6175 34.8906 27.641 34.7269 27.6254 34.5864C27.4298 34.797 27.1328 34.7034 26.8983 34.7346C26.6168 34.7737 26.3667 34.68 26.0852 34.7112C26.0227 34.7112 26.0304 34.8205 25.9836 34.8361C25.9367 34.8517 25.8507 34.7581 25.8037 34.7658C25.6864 34.7814 25.5457 34.875 25.452 34.9608C25.2643 35.1168 25.1157 35.2338 24.9985 35.4912C24.9516 35.5848 24.889 35.6862 24.8577 35.7954C24.8265 35.8812 24.8421 36.0372 24.803 36.123C24.7874 36.162 24.7405 36.162 24.7093 36.1698C24.7796 36.2478 24.889 36.3024 24.975 36.3258C25.0454 36.3492 25.3424 36.5754 25.4129 36.591C25.4597 36.5988 25.4988 36.5832 25.5457 36.591C25.5301 36.7626 25.5067 36.6768 25.6083 36.7626C25.6787 36.8172 25.7334 36.8406 25.8037 36.8874C25.8663 36.9264 25.921 37.02 25.9914 37.0356C25.9914 37.02 25.8897 36.8016 25.8897 36.786C25.968 36.8016 26.1243 37.0824 26.2024 37.0824C26.2807 37.0824 26.3667 37.0746 26.3667 37.2306C26.4917 37.2306 26.609 37.3788 26.7263 37.4412C26.8357 37.4958 26.9764 37.6596 27.0859 37.6674C26.9843 37.8702 26.8748 38.0652 26.695 38.1744C26.5543 38.2601 26.4761 38.2524 26.3197 38.2757C26.2963 38.2757 26.2728 38.3148 26.2494 38.3148C26.2259 38.3148 26.2024 38.2913 26.179 38.2913C26.1399 38.2757 26.0617 38.3772 26.0617 38.3069C25.9444 38.2757 25.796 38.2836 25.6943 38.1822C25.577 38.073 25.452 37.9404 25.319 37.8156C25.2487 37.7453 25.1861 37.8234 25.1392 37.7376C25.1236 37.7064 25.1236 37.6596 25.1001 37.6284C25.0845 37.605 25.061 37.5114 25.0454 37.4958C24.9985 37.4022 24.9594 37.2072 24.9516 37.098C24.9516 37.2306 24.9125 37.3632 24.8969 37.488C24.8813 37.6128 24.889 37.7453 24.8734 37.8702C24.85 38.112 24.7953 38.3772 24.717 38.5878C24.7953 38.5098 24.8343 38.4006 24.9437 38.3772C25.0689 38.346 25.1627 38.4474 25.28 38.4786C25.4676 38.5254 25.6396 38.6658 25.8194 38.7048C25.9288 38.7281 26.0304 38.7204 26.1399 38.7749V38.7828C26.2963 38.7828 26.437 38.7281 26.6011 38.7281C26.8123 38.7281 27.0077 38.6034 27.1954 38.4942C27.2814 38.4396 27.3204 38.3538 27.4064 38.2913C27.4924 38.2289 27.5237 38.19 27.5863 38.1042C27.6801 37.9794 27.8051 37.8936 27.7895 37.6752C27.8598 37.6752 27.9146 37.4879 27.9381 37.41C27.9615 37.332 27.9537 37.41 27.9928 37.3554C28.0318 37.3086 28.1335 37.1448 28.1804 37.137C28.071 37.0902 27.9771 36.981 27.8677 36.9264C27.7035 36.8406 27.5394 36.786 27.3751 36.6924L27.3986 36.669ZM24.6936 36.162C24.6936 36.162 24.7093 36.1542 24.7249 36.1464C24.7249 36.1464 24.7093 36.1308 24.7093 36.123V36.162H24.6936ZM2.0293 36.4272C2.0293 36.4272 2.05275 36.4038 2.06057 36.3882L2.0293 36.4272ZM5.97737 37.878C5.8992 37.9638 5.79756 38.0339 5.71156 38.0964C5.65684 38.1354 5.60212 38.1744 5.54739 38.1822C5.50829 38.19 5.47702 38.1588 5.43012 38.1822C5.43012 38.2133 5.41448 38.2368 5.41448 38.268C5.36758 38.268 5.31285 38.2757 5.26594 38.2836L5.02358 38.2601C5.02358 38.2601 5.00795 38.2524 5.00013 38.2445C4.96886 38.2289 4.93759 38.2289 4.8985 38.2212V38.2524H4.82813C4.64832 38.2524 4.4216 38.151 4.26524 38.0574C4.17142 38.0027 4.1167 37.8858 4.02288 37.839C3.96816 37.8078 3.8978 37.839 3.84307 37.7922C3.81961 37.7766 3.81961 37.7297 3.80398 37.7141C3.63199 37.5036 3.4209 37.3632 3.3349 37.0512C3.28018 36.8484 3.27236 36.5598 3.15509 36.396C3.21763 36.3258 3.22545 36.2244 3.27236 36.1386C3.31145 36.0606 3.36618 35.9904 3.4209 35.9202C3.57726 35.7174 3.74926 35.5771 3.9447 35.46C4.1167 35.3586 4.29651 35.265 4.48415 35.2182C4.52323 35.2104 4.5545 35.2026 4.58578 35.187C4.62486 35.1714 4.62486 35.1402 4.67959 35.1324C4.78123 35.1168 4.89068 35.1636 5.00013 35.1636C5.00013 35.1948 5.01577 35.2182 5.01577 35.2494C5.06267 35.2806 5.08613 35.2494 5.13304 35.2494C5.18777 35.2572 5.24248 35.3041 5.29721 35.3353C5.39102 35.3976 5.48485 35.4678 5.56302 35.5536C5.64902 35.6472 5.69593 35.7642 5.77411 35.8578C5.84447 35.9358 5.93047 35.967 5.9852 36.045C5.93829 35.7642 5.8601 35.4756 5.82883 35.187C5.8132 35.0311 5.73502 34.8984 5.68029 34.7658C5.64902 34.68 5.59429 34.3525 5.53175 34.3057C5.41448 34.5163 5.40666 34.6878 5.2034 34.6878C5.00794 34.6878 4.82032 34.6255 4.62487 34.6332C4.43724 34.641 4.28088 34.5943 4.09324 34.6176C4.01507 34.6255 3.9447 34.6722 3.86653 34.6956C3.8118 34.7112 3.71016 34.6956 3.67889 34.7112C3.5069 34.7346 3.35835 34.9218 3.20199 34.9998C3.21763 35.0856 3.23327 35.1792 3.3349 35.2026C3.29581 35.2026 3.05345 35.1091 3.02218 35.1168C2.99873 35.1168 2.96746 35.1636 2.944 35.1792C2.78764 35.2885 2.74856 35.4444 2.64692 35.6083C2.60783 35.6706 2.56874 35.6862 2.52965 35.7408C2.47493 35.811 2.45147 35.9124 2.41238 36.0138C2.34983 36.1932 2.17784 36.2556 2.05275 36.3882C2.10748 36.4584 2.23256 36.6534 2.26384 36.7314C2.29511 36.825 2.35766 36.903 2.38111 36.9966C2.41238 37.1214 2.40456 37.1838 2.4671 37.2696C2.52965 37.3554 2.56874 37.4568 2.61565 37.566C2.67037 37.7064 2.74074 37.8468 2.8111 37.9794C2.88928 38.1198 2.944 38.1588 3.06127 38.2445C3.24109 38.3694 3.38181 38.4942 3.56944 38.5799C3.6398 38.7749 3.96034 38.8529 4.10888 38.8373C4.29651 38.814 4.49196 38.8296 4.68741 38.814C4.80468 38.8061 4.92195 38.7672 5.03922 38.7672V38.7984C5.12521 38.7984 5.2034 38.7984 5.28158 38.7828C5.35975 38.7905 5.43794 38.7984 5.51612 38.7905C5.58648 38.7905 5.64902 38.7672 5.71939 38.7437C5.85229 38.7593 5.8992 38.814 5.9852 38.9778C6.04774 38.931 6.0712 38.736 6.10247 38.6502C6.11028 38.6268 6.1181 38.6034 6.13374 38.5799C6.14937 38.5799 6.15719 38.5799 6.17283 38.5799C6.16501 38.5722 6.15719 38.5643 6.14155 38.5566C6.18847 38.4552 6.23537 38.346 6.24318 38.2289C6.27446 37.9404 6.35264 37.6518 6.39173 37.371C6.33701 37.4568 6.25101 37.488 6.18064 37.566C6.09464 37.6596 6.05556 37.7766 5.96956 37.8702L5.97737 37.878ZM37.7809 37.7609C37.6949 37.8546 37.6558 37.7844 37.5698 37.8858C37.4916 37.9715 37.3978 38.0418 37.304 38.1042C37.2493 38.1432 37.1945 38.1822 37.1398 38.19C37.1007 38.1978 37.0694 38.1666 37.0226 38.19C37.0226 38.2212 37.0069 38.2445 37.0069 38.2757C36.96 38.2757 36.9053 38.2836 36.8584 38.2913L36.616 38.268C36.616 38.268 36.6004 38.2601 36.5926 38.2524C36.5613 38.2445 36.53 38.2368 36.4909 38.2289V38.2601H36.4206C36.2407 38.2601 36.014 38.1588 35.8654 38.0652C35.7717 38.0106 35.717 37.8936 35.6309 37.8468C35.5762 37.8156 35.5137 37.8468 35.459 37.8C35.4355 37.7844 35.4355 37.7376 35.4199 37.722C35.2479 37.5114 35.0446 37.3788 34.9586 37.059C34.9039 36.8562 34.9039 36.5676 34.7866 36.4038C34.8492 36.3336 34.857 36.2322 34.9039 36.1464C34.943 36.0684 34.9977 35.9982 35.0446 35.928C35.201 35.7252 35.3651 35.5848 35.5606 35.4756C35.7326 35.3742 35.9046 35.2806 36.0922 35.2338C36.1313 35.226 36.1626 35.2182 36.1938 35.2026C36.2329 35.187 36.2329 35.1558 36.2876 35.148C36.3893 35.1324 36.6629 35.187 36.7724 35.187C36.7724 35.2182 36.6238 35.2338 36.616 35.265C36.6629 35.2962 36.6864 35.265 36.7333 35.265C36.788 35.2728 36.8427 35.3197 36.8974 35.3509C36.9913 35.4132 37.0851 35.4834 37.1633 35.5692C37.2493 35.6628 37.2961 35.7798 37.3744 35.8734C37.4447 35.9514 37.5307 35.9826 37.5854 36.0606C37.5464 35.7798 37.4681 35.4912 37.4291 35.2104C37.4134 35.0544 37.3353 34.9218 37.2805 34.7893C37.2493 34.7034 37.218 34.5163 37.1633 34.4695C37.0538 34.6722 37.0069 34.7112 36.8036 34.7112C36.6082 34.7112 36.4206 34.6488 36.2329 34.6566C36.0453 34.6644 35.8967 34.6176 35.7013 34.641C35.6231 34.6488 35.5527 34.6956 35.4746 34.719C35.4199 34.7346 35.326 34.719 35.287 34.7346C35.115 34.7581 34.9742 34.9452 34.81 35.0232C34.8179 35.1091 34.6693 35.1324 34.638 35.1402C34.6146 35.1402 34.5833 35.187 34.5599 35.2026C34.4113 35.3118 34.3957 35.733 34.294 35.8968C34.255 35.9592 34.3175 35.4678 34.2784 35.5146C34.2237 35.5848 34.0752 35.928 34.036 36.0294C33.9657 36.2244 33.8953 36.357 33.7859 36.5208L33.7468 36.6222C33.8015 36.6846 33.864 36.669 33.8953 36.7548C33.9266 36.8484 33.9892 36.9264 34.0126 37.02C34.0439 37.1448 34.036 37.2072 34.0986 37.293C34.1612 37.3788 34.2003 37.4802 34.2393 37.5894C34.294 37.7297 34.3644 37.8702 34.4348 38.0027C34.513 38.1432 34.5677 38.1822 34.6772 38.2601C34.857 38.385 34.9899 38.5098 35.1853 38.5956C35.2557 38.7905 35.5684 38.8686 35.717 38.8529C35.9046 38.8296 36.1 38.8452 36.2876 38.8296C36.4049 38.8217 36.5144 38.7828 36.6316 38.7828V38.814C36.7176 38.814 36.7958 38.814 36.874 38.7984C36.9521 38.8061 37.0304 38.814 37.1085 38.8061C37.1789 38.8061 37.2414 38.7828 37.304 38.7593C37.4291 38.7749 37.476 38.8296 37.5698 38.9934C37.6324 38.9466 37.6558 38.7516 37.6871 38.6658C37.6949 38.6424 37.7027 38.619 37.7105 38.5956C37.7261 38.5956 37.734 38.5956 37.7496 38.5956C37.7418 38.5878 37.734 38.5799 37.7183 38.5722C37.7653 38.4707 37.8121 38.3694 37.82 38.2445C37.8513 37.956 37.9294 37.6674 37.9685 37.3944C37.9138 37.4802 37.8278 37.6908 37.7574 37.7688L37.7809 37.7609Z" fill="#4DBD80"/>
<path d="M19.9991 30.0959C27.1565 30.0959 32.9587 24.2938 32.9587 17.1364C32.9587 9.97902 27.1565 4.17688 19.9991 4.17688C12.8417 4.17688 7.03955 9.97902 7.03955 17.1364C7.03955 24.2938 12.8417 30.0959 19.9991 30.0959Z" fill="#001712"/>
<path d="M10.3413 28.4315C12.9386 30.6557 16.3134 31.9971 19.9987 32C23.6882 32 27.0616 30.6544 29.6574 28.4315H32.8828V24.5526C34.1387 22.3697 34.8635 19.8364 34.8635 17.1352C34.8635 14.4353 34.1401 11.9021 32.8828 9.71626V5.84024H29.6574C27.0616 3.61884 23.6882 2.27319 20.0015 2.27319C16.3149 2.27319 12.9372 3.61884 10.3413 5.84024H7.11888V9.71771C5.85725 11.9006 5.13672 14.4339 5.13672 17.1366C5.13672 19.8393 5.85725 22.3711 7.11888 24.5554V28.433H10.3428L10.3413 28.4315ZM20.0001 4.50313C26.9775 4.50313 32.6335 10.1605 32.6335 17.1366C32.6335 24.114 26.9775 29.7715 20.0015 29.7715C13.0255 29.7715 7.36665 24.114 7.36523 17.1366C7.36808 10.1605 13.0255 4.50313 20.0001 4.50313Z" fill="#4DBD80"/>
<path d="M11.9524 11.2174L15.1962 25.1695C15.2788 25.779 14.8103 26.3585 14.3475 26.8797H19.5393C19.3442 26.377 19.172 25.9214 19.1733 25.3418L20.2926 20.2482C20.6187 21.7719 20.9263 23.277 21.2566 24.8021C21.4489 25.4942 21.3278 26.2659 21.0387 26.8783H26.2035C25.9329 26.3984 25.52 25.7078 25.6183 24.9744L27.6431 12.6613C27.992 11.5435 28.5886 10.5197 29.265 9.5557C27.6046 9.57705 25.8674 9.5158 24.2669 9.59552C24.9034 10.1922 24.4605 11.1563 24.4022 11.8711L22.8757 21.1326C22.8558 21.114 22.8202 21.0941 22.8386 21.0357L20.193 10.6137C19.2488 14.054 18.5725 17.5812 17.5501 20.9987L17.5116 20.9389L15.5636 11.5991L15.659 9.55714H10.7363C11.3757 9.88459 11.7203 10.6009 11.9524 11.2146V11.2174Z" fill="#4DBD80"/>
</svg>
